# Blender 3.4.1
# www.blender.org
mtllib sky.mtl
o Cube
v -1.000000 1.000000 6.866419
v -1.000000 -1.000000 6.866419
v -1.000000 1.000000 -6.866419
v -1.000000 -1.000000 -6.866419
v 1.000000 1.000000 6.866419
v 1.000000 -1.000000 6.866419
v 1.000000 1.000000 -6.866419
v 1.000000 -1.000000 -6.866419
vn -0.0000 -1.0000 -0.0000
vn -1.0000 -0.0000 -0.0000
vn -0.0000 1.0000 -0.0000
vn 1.0000 -0.0000 -0.0000
vt 0.625000 0.500000
vt 0.375000 0.500000
vt 0.625000 0.750000
vt 0.375000 0.750000
vt 0.875000 0.500000
vt 0.625000 0.250000
vt 0.125000 0.500000
vt 0.375000 0.250000
vt 0.875000 0.750000
vt 0.625000 0.000000
vt 0.375000 0.000000
vt 0.125000 0.750000
s 0
usemtl Material
f 3/3/1 5/5/1 1/1/1
f 6/8/2 7/10/2 8/11/2
f 8/12/3 2/2/3 6/7/3
f 4/4/4 1/1/4 2/2/4
f 3/3/1 7/9/1 5/5/1
f 6/8/2 5/6/2 7/10/2
f 8/12/3 4/4/3 2/2/3
f 4/4/4 3/3/4 1/1/4
